<svg xmlns="http://www.w3.org/2000/svg" xmlns:xlink="http://www.w3.org/1999/xlink" width="260" height="40.122" viewBox="0 0 260 40.122">
  <defs>
    <clipPath id="clip-path">
      <rect id="Rectangle_44" data-name="Rectangle 44" width="260" height="40.122" fill="none"/>
    </clipPath>
    <clipPath id="clip-path-3">
      <rect id="Rectangle_38" data-name="Rectangle 38" width="49.001" height="31.614" fill="none"/>
    </clipPath>
  </defs>
  <g id="Group_13" data-name="Group 13" clip-path="url(#clip-path)">
    <rect id="Rectangle_37" data-name="Rectangle 37" width="0.542" height="38.956" transform="translate(177.993 0.989)" fill="#464749"/>
    <g id="Group_12" data-name="Group 12" transform="translate(0 0.001)">
      <g id="Group_11" data-name="Group 11" clip-path="url(#clip-path)">
        <g id="Group_10" data-name="Group 10" transform="translate(210.999 0.989)" opacity="0.96">
          <g id="Group_9" data-name="Group 9">
            <g id="Group_8" data-name="Group 8" clip-path="url(#clip-path-3)">
              <path id="Path_60" data-name="Path 60" d="M146.034,32.224h-10.8a5.254,5.254,0,0,1-5.224-5.286V5.9A5.255,5.255,0,0,1,135.237.61h38.552A5.256,5.256,0,0,1,179.012,5.9V26.938a5.255,5.255,0,0,1-5.223,5.286H146.034Z" transform="translate(-130.013 -0.61)" fill="#72b32f" fill-rule="evenodd"/>
            </g>
          </g>
        </g>
        <path id="Path_61" data-name="Path 61" d="M130.917,8.411h4.658v1.861A6.561,6.561,0,0,1,140.65,8.12c3.213,0,5.042,1.993,5.042,5.752v9.411H141V14.514c0-2.056-.61-3.053-2.089-3.053a3.978,3.978,0,0,0-3.34,2.345v9.476h-4.658Z" transform="translate(81.55 5.057)" fill="#fff"/>
        <path id="Path_62" data-name="Path 62" d="M128.415,4.535a2.736,2.736,0,0,1,2.777,2.777,2.778,2.778,0,1,1-2.777-2.777" transform="translate(78.261 2.824)" fill="#72b32f"/>
        <rect id="Rectangle_39" data-name="Rectangle 39" width="5.459" height="15.044" transform="translate(203.898 13.417)" fill="#72b32f"/>
        <path id="Path_63" data-name="Path 63" d="M149.941,6.714a2.032,2.032,0,0,1,.974.256,1.837,1.837,0,0,1,.742.735,2,2,0,0,1,0,1.98,1.818,1.818,0,0,1-.734.735,1.994,1.994,0,0,1-1.973,0,1.832,1.832,0,0,1-.735-.735,1.979,1.979,0,0,1,0-1.98,1.838,1.838,0,0,1,.742-.735,2.044,2.044,0,0,1,.977-.256m1.43,1.157a1.511,1.511,0,0,0-.618-.613,1.647,1.647,0,0,0-1.625,0,1.534,1.534,0,0,0-.62.613,1.648,1.648,0,0,0,0,1.65,1.564,1.564,0,0,0,.615.613,1.649,1.649,0,0,0,1.642,0,1.529,1.529,0,0,0,.613-.613,1.653,1.653,0,0,0,0-1.65m-.789,1.342a3.844,3.844,0,0,0,.17.609h-.3a2.746,2.746,0,0,1-.146-.529c-.065-.307-.187-.422-.446-.432h-.271v.961h-.286V7.636a3.04,3.04,0,0,1,.55-.049.924.924,0,0,1,.644.183.552.552,0,0,1,.175.422.589.589,0,0,1-.419.563v.01a.56.56,0,0,1,.325.448m-.2-.992c0-.286-.206-.411-.508-.411a1.153,1.153,0,0,0-.286.026v.807h.294c.307,0,.5-.167.5-.422" transform="translate(92.163 4.182)" fill="#fff" fill-rule="evenodd"/>
        <path id="Path_64" data-name="Path 64" d="M132.785,26.8a2.667,2.667,0,0,1-2.772-2.858,2.634,2.634,0,0,1,2.772-2.848,2.708,2.708,0,0,1,2.072.839l.08.089-.446.419-.083-.084a2.181,2.181,0,0,0-1.62-.643h0a2,2,0,0,0-2.082,2.228,2.006,2.006,0,0,0,2.082,2.236,1.974,1.974,0,0,0,1.547-.617V24.237h-1.667v-.6h2.348v2.145l-.026.032a2.65,2.65,0,0,1-2.2.988" transform="translate(80.986 13.138)" fill="#5a5b5e"/>
        <path id="Path_65" data-name="Path 65" d="M138.813,26.673h-.833l-1.431-1.986-1.443,0v1.985h-.691V21.149l2.293,0a1.672,1.672,0,0,1,1.8,1.769,1.606,1.606,0,0,1-1.224,1.688Zm-3.708-2.6h1.563a1.16,1.16,0,0,0,0-2.319H135.1Z" transform="translate(83.729 13.172)" fill="#5a5b5e"/>
        <path id="Path_66" data-name="Path 66" d="M140.815,26.8a2.666,2.666,0,0,1-2.772-2.858,2.634,2.634,0,0,1,2.772-2.848A2.665,2.665,0,0,1,143.6,23.94a2.643,2.643,0,0,1-2.782,2.858m0-5.085a2,2,0,0,0-2.082,2.227,2.092,2.092,0,1,0,4.174,0,2.005,2.005,0,0,0-2.092-2.227" transform="translate(85.988 13.138)" fill="#5a5b5e"/>
        <path id="Path_67" data-name="Path 67" d="M144.925,26.773c-1.521,0-2.228-.833-2.228-2.619V21.148h.69v2.973c0,1.42.445,2,1.539,2s1.539-.579,1.539-2V21.148h.69v3.006c0,1.125-.23,2.619-2.228,2.619" transform="translate(88.887 13.173)" fill="#5a5b5e"/>
        <path id="Path_68" data-name="Path 68" d="M147.452,26.671h-.69V21.147h2.3a1.755,1.755,0,0,1,1.886,1.86,1.738,1.738,0,0,1-1.886,1.861h-1.608Zm0-2.413h1.566a1.134,1.134,0,0,0,1.24-1.251,1.143,1.143,0,0,0-1.24-1.248h-1.566Z" transform="translate(91.42 13.172)" fill="#5a5b5e"/>
        <path id="Path_69" data-name="Path 69" d="M155.335,26.713a4.418,4.418,0,0,1-.4,1.9h-5.424c.992-.286,1.521-.815,1.521-1.564,0-1.058-1.235-1.743-3.441-1.743-2.358,0-3.57.639-3.57,1.7,0,.8.485,1.324,1.433,1.61h-5.468a3.419,3.419,0,0,1-.265-1.345c0-1.741,1.345-3.019,3.945-3.7-1.146-.352-1.741-.948-1.741-1.829,0-1.147.839-1.9,2.514-2.272-2.623-.771-3.749-2.027-3.947-4.474a5.162,5.162,0,0,1,.287-2.183c1.324-3.637,8.092-5.534,8.092-5.534l-.485-.86,3.262.993-.529,2.954-.683-.75c-3.218,1.081-4.851,2.712-5.357,3.991-.464,1.235-.177,3.77,2.227,3.814s3.351-1.9,2.647-3.505c-.729-1.631-2.91-1.521-2.91-1.521l3.085-2.116a8.23,8.23,0,0,1,1.868.826,4.813,4.813,0,0,1,2.475,3.994l0,.029c0,2.712-1.61,4.278-4.763,4.828-2.051.354-3.351.023-3.351,1.191,0,.992,1.3.86,4.1,1.212,3.2.419,4.872,1.962,4.872,4.366" transform="translate(87.037 3.99)" fill="#fff"/>
        <path id="Path_70" data-name="Path 70" d="M63.386,9.359h1.5a2.821,2.821,0,0,1-.98,2.554,6.627,6.627,0,0,1-3.283.591q-3.2,0-3.859-1.094a7.353,7.353,0,0,1-.633-3.465,4.438,4.438,0,0,1,.889-3.1q.886-.954,3.579-.954a8.319,8.319,0,0,1,2.89.454,2.009,2.009,0,0,1,1.219,2.142V6.6a.128.128,0,0,0-.019.078v.076H63.211c0-.758-.183-1.256-.557-1.487a3.7,3.7,0,0,0-1.871-.344,3.926,3.926,0,0,0-2.545.526,3.539,3.539,0,0,0-.523,2.337v.841a4.468,4.468,0,0,0,.4,2.136c.26.477,1.045.711,2.356.711a5.388,5.388,0,0,0,2.3-.333c.4-.23.613-.818.613-1.784" transform="translate(34.965 2.422)" fill="#06297e"/>
        <path id="Path_71" data-name="Path 71" d="M62.885,8a5.161,5.161,0,0,1,.773-3.145c.513-.664,1.7-1,3.543-1,1.952,0,3.2.282,3.781.849s.868,1.631.868,3.228a8.821,8.821,0,0,1-.531,3.366q-.528,1.283-3.652,1.28a7.115,7.115,0,0,1-3.746-.7c-.688-.467-1.037-1.5-1.037-3.08Zm1.589-.026v1.1c0,.136.011.274.016.411a6.01,6.01,0,0,0,.174.993,1.421,1.421,0,0,0,.417.727,1.267,1.267,0,0,0,.581.255,4.53,4.53,0,0,0,.73.093H67.41a5.1,5.1,0,0,0,2.011-.31c.464-.2.73-.7.785-1.5.013-.175.019-.341.032-.5s.006-.32.006-.485a3.551,3.551,0,0,0,.028-.482V7.8a5.4,5.4,0,0,0-.342-2.236c-.234-.446-.969-.669-2.2-.669H67.41c-1.315,0-2.129.164-2.449.506a3.622,3.622,0,0,0-.487,2.3Z" transform="translate(39.172 2.402)" fill="#06297e"/>
        <rect id="Rectangle_40" data-name="Rectangle 40" width="1.535" height="12.076" transform="translate(113.485 2.787)" fill="#06297e"/>
        <rect id="Rectangle_41" data-name="Rectangle 41" width="1.54" height="12.076" transform="translate(117.668 2.787)" fill="#06297e"/>
        <path id="Path_72" data-name="Path 72" d="M82.307,9.877h1.561c0,1.243-.393,2-1.193,2.261a10.09,10.09,0,0,1-3.127.4c-1.9,0-3.127-.3-3.692-.9A4.738,4.738,0,0,1,75,8.433a7.069,7.069,0,0,1,.662-3.385c.437-.787,1.654-1.177,3.668-1.177,1.9,0,3.118.268,3.681.8s.837,1.576.854,3.145v.633h-7.3A5.8,5.8,0,0,0,76.94,10.7c.235.578,1.032.862,2.394.862h.875a3.684,3.684,0,0,0,.531-.039,4.229,4.229,0,0,0,.635-.094,1.652,1.652,0,0,0,.521-.2.633.633,0,0,0,.291-.334,2.044,2.044,0,0,0,.1-.419.634.634,0,0,0,.019-.169V9.877Zm.041-2.408a3.482,3.482,0,0,0-.44-2.1c-.3-.349-1.113-.521-2.446-.521a3.465,3.465,0,0,0-2.318.542A2.957,2.957,0,0,0,76.6,7.469Z" transform="translate(46.721 2.411)" fill="#06297e"/>
        <path id="Path_73" data-name="Path 73" d="M90.59,4v8.98a2.7,2.7,0,0,1-1.1,2.577,6.852,6.852,0,0,1-3.333.631,7.284,7.284,0,0,1-2.955-.472c-.678-.318-1.016-1.076-1.016-2.3l1.414.018c.05.76.239,1.229.589,1.433A4.065,4.065,0,0,0,86,15.151a6.7,6.7,0,0,0,2.326-.326c.545-.221.811-.8.811-1.762V11.407a1.98,1.98,0,0,1-1.175.881,6.149,6.149,0,0,1-1.6.234,1.713,1.713,0,0,1-.279.019h-.287c-1.629,0-2.7-.365-3.2-1.087a5,5,0,0,1-.75-2.9,8.332,8.332,0,0,1,.589-3.342C82.842,4.336,84,3.89,85.929,3.89a7.277,7.277,0,0,1,1.863.229,2.558,2.558,0,0,1,1.412.969L89.133,4ZM83.43,8.184v.305A5.476,5.476,0,0,0,83.8,10.7c.245.526,1.045.789,2.408.789a4.206,4.206,0,0,0,1.936-.385,1.732,1.732,0,0,0,.846-1.462c.028-.243.06-.48.065-.73s.021-.488.021-.73a6.508,6.508,0,0,0-.364-2.374q-.375-.889-2.5-.886a3.291,3.291,0,0,0-2.233.536A2.845,2.845,0,0,0,83.43,7.5Z" transform="translate(50.983 2.422)" fill="#06297e"/>
        <path id="Path_74" data-name="Path 74" d="M95.879,9.877h1.568c0,1.243-.4,2-1.191,2.261a10.117,10.117,0,0,1-3.132.4c-1.894,0-3.124-.3-3.684-.9a4.635,4.635,0,0,1-.852-3.2,7.143,7.143,0,0,1,.651-3.385c.433-.787,1.654-1.177,3.668-1.177q2.851,0,3.686.8a4.4,4.4,0,0,1,.855,3.145v.633H90.151a5.93,5.93,0,0,0,.357,2.256c.23.578,1.037.862,2.4.862h.878a3.7,3.7,0,0,0,.54-.039,4.57,4.57,0,0,0,.63-.094,1.551,1.551,0,0,0,.516-.2.646.646,0,0,0,.3-.334,2.412,2.412,0,0,0,.1-.419c0-.058.011-.1.011-.169V9.877Zm.052-2.408a3.422,3.422,0,0,0-.45-2.1c-.294-.349-1.113-.521-2.446-.521a3.423,3.423,0,0,0-2.3.542,2.912,2.912,0,0,0-.555,2.079Z" transform="translate(55.182 2.411)" fill="#06297e"/>
        <path id="Path_75" data-name="Path 75" d="M15.583,6.138H14.066a1.452,1.452,0,0,0-.263-.987,1.671,1.671,0,0,0-1.128-.321c-.274-.011-.555-.021-.839-.021H10.669c-.112,0-.226.01-.342.021A4.966,4.966,0,0,0,9.7,4.9a1.432,1.432,0,0,0-.537.2.537.537,0,0,0-.258.3,1.42,1.42,0,0,0-.091.377V6.07a1.481,1.481,0,0,0,.3,1.055,1.966,1.966,0,0,0,1.219.316c.192,0,.385.013.581.013h.576A13.672,13.672,0,0,1,14.52,7.8c.915.216,1.37.912,1.37,2.079,0,1.233-.4,1.973-1.193,2.227a10.285,10.285,0,0,1-3.082.383h-.351A10.926,10.926,0,0,1,8.459,12.1a1.755,1.755,0,0,1-1.276-1.938v-.117a.724.724,0,0,1,.023-.115.638.638,0,0,1,.01-.127.76.76,0,0,0,.008-.114H8.749c0,.777.177,1.28.529,1.491a3.611,3.611,0,0,0,1.85.334h.837l.545-.031a4.664,4.664,0,0,0,.735-.091,1.625,1.625,0,0,0,.6-.217.7.7,0,0,0,.321-.344,1.438,1.438,0,0,0,.115-.446,1.172,1.172,0,0,0,.019-.224V9.954c0-.669-.2-1.058-.615-1.16a6.074,6.074,0,0,0-1.521-.162h-.091a1.358,1.358,0,0,0-.271-.021h-.294c-.068,0-.143,0-.213,0a1.294,1.294,0,0,0-.217-.018,11.424,11.424,0,0,1-2.673-.364c-.743-.213-1.12-.852-1.12-1.91,0-.118,0-.219.01-.325s.023-.252.037-.364a2.384,2.384,0,0,1,.192-.7,1.309,1.309,0,0,1,.5-.547A2.6,2.6,0,0,1,8.9,4.014a7.115,7.115,0,0,1,1.042-.177c.243-.018.482-.045.725-.045s.464-.015.661-.015h.576c.195,0,.391.01.591.024a6.472,6.472,0,0,1,2.149.441,1.529,1.529,0,0,1,.966,1.584v.164a.145.145,0,0,0-.028.078Z" transform="translate(4.474 2.352)" fill="#e50019"/>
        <rect id="Rectangle_42" data-name="Rectangle 42" width="1.539" height="12.071" transform="translate(22.779 2.658)" fill="#e50019"/>
        <path id="Path_76" data-name="Path 76" d="M18.074,3.033H16.532V1.639h1.542Zm0,10.676H16.532V5.255h1.542Z" transform="translate(10.298 1.02)" fill="#e50019"/>
        <path id="Path_77" data-name="Path 77" d="M19.031,3.936h1.418V5.018A2.768,2.768,0,0,1,21.946,4a7.774,7.774,0,0,1,1.954-.24,4.717,4.717,0,0,1,2.894.661A2.9,2.9,0,0,1,27.616,6.8V12.39H26.074V6.9a2.262,2.262,0,0,0-.484-1.7,3.364,3.364,0,0,0-2.014-.4,3.774,3.774,0,0,0-2.236.557A2.11,2.11,0,0,0,20.555,7.2V12.39H19.031Z" transform="translate(11.855 2.341)" fill="#e50019"/>
        <path id="Path_78" data-name="Path 78" d="M34.531,3.919V12.9a2.707,2.707,0,0,1-1.1,2.577,6.917,6.917,0,0,1-3.33.625,7.152,7.152,0,0,1-2.963-.476c-.672-.31-1.018-1.071-1.018-2.3l1.41.018c.049.766.242,1.238.591,1.433a3.994,3.994,0,0,0,1.808.291,6.6,6.6,0,0,0,2.316-.328c.552-.217.824-.8.824-1.748V11.323a1.922,1.922,0,0,1-1.18.88,6.135,6.135,0,0,1-1.6.237,1.765,1.765,0,0,1-.291.024h-.276c-1.636,0-2.705-.37-3.205-1.091a5.079,5.079,0,0,1-.753-2.894,8.131,8.131,0,0,1,.605-3.338c.4-.886,1.556-1.328,3.48-1.328a6.834,6.834,0,0,1,1.868.229,2.52,2.52,0,0,1,1.412.967l-.065-1.091ZM27.364,8.1v.3a5.315,5.315,0,0,0,.372,2.214c.243.524,1.048.792,2.4.792a4.156,4.156,0,0,0,1.933-.389,1.7,1.7,0,0,0,.849-1.454c.036-.245.052-.487.07-.73s.024-.493.024-.734a6.441,6.441,0,0,0-.37-2.374q-.377-.881-2.506-.883a3.375,3.375,0,0,0-2.235.527,2.9,2.9,0,0,0-.54,2.046Z" transform="translate(16.055 2.375)" fill="#e50019"/>
        <path id="Path_79" data-name="Path 79" d="M39.227,4.664v.992H35.316v5.2a1.487,1.487,0,0,0,.271,1.018,1.573,1.573,0,0,0,1.17.308c.674,0,1.094-.144,1.224-.425a2.418,2.418,0,0,0,.206-1.078v-.565h1.431a4.613,4.613,0,0,1-.476,2.212c-.312.584-1.128.884-2.41.884a3.978,3.978,0,0,1-2.327-.5,2.3,2.3,0,0,1-.623-1.853v-5.2H32.456V4.664h1.326V2.618h1.534V4.664Z" transform="translate(20.217 1.63)" fill="#e50019"/>
        <path id="Path_80" data-name="Path 80" d="M37.993,7.924a5.138,5.138,0,0,1,.771-3.14c.514-.674,1.7-1.006,3.556-1.006,1.935,0,3.2.287,3.778.844s.862,1.633.862,3.228a8.954,8.954,0,0,1-.527,3.372Q45.9,12.5,42.769,12.5a7.012,7.012,0,0,1-3.744-.708c-.691-.459-1.032-1.5-1.032-3.077ZM39.58,7.9V8.995a3.289,3.289,0,0,0,.024.4,4.7,4.7,0,0,0,.172,1,1.416,1.416,0,0,0,.406.729,1.378,1.378,0,0,0,.586.255,5.558,5.558,0,0,0,.73.1H42.51a5.289,5.289,0,0,0,2.019-.315c.464-.2.727-.7.787-1.508.013-.167.021-.329.031-.487s.008-.325.008-.488a4,4,0,0,0,.023-.487V7.708a5.287,5.287,0,0,0-.342-2.225c-.23-.451-.964-.674-2.2-.674H42.51a3.721,3.721,0,0,0-2.442.51,3.684,3.684,0,0,0-.487,2.308Z" transform="translate(23.666 2.352)" fill="#e50019"/>
        <path id="Path_81" data-name="Path 81" d="M45.03,3.936h1.41V5.018A2.766,2.766,0,0,1,47.938,4a7.782,7.782,0,0,1,1.957-.24,4.677,4.677,0,0,1,2.882.661A2.855,2.855,0,0,1,53.609,6.8V12.39H52.065V6.9a2.257,2.257,0,0,0-.477-1.7,3.394,3.394,0,0,0-2.024-.4,3.789,3.789,0,0,0-2.235.557A2.119,2.119,0,0,0,46.549,7.2V12.39H45.03Z" transform="translate(28.05 2.341)" fill="#e50019"/>
        <path id="Path_82" data-name="Path 82" d="M5.949,0h-.18A2.5,2.5,0,0,0,4.1.675a1.707,1.707,0,0,0,.149,2.712,2.538,2.538,0,0,0,1.55.5h.161a2.586,2.586,0,0,0,1.678-.67,1.734,1.734,0,0,0,.607-1.394A1.69,1.69,0,0,0,7.508.5,2.457,2.457,0,0,0,5.949,0" transform="translate(2.182 -0.001)" fill="#e50019"/>
        <path id="Path_83" data-name="Path 83" d="M3.155,10.52a6.766,6.766,0,0,0,1.454.167A6.5,6.5,0,0,0,8.564,9.355,6,6,0,0,1,7.551,7.782a6.948,6.948,0,0,1-4.4,2.738" transform="translate(1.965 4.847)" fill="#e50019"/>
        <path id="Path_84" data-name="Path 84" d="M10.25,2.554a.3.3,0,0,1-.067.084,3.065,3.065,0,0,1-2,.813l-.195,0a3.019,3.019,0,0,1-1.868-.613,2.274,2.274,0,0,1-.893-1.287A6.57,6.57,0,0,0,3.59,13.841a1.08,1.08,0,0,1-.276-.657,2.993,2.993,0,0,1,.153-.966l1.44-4.913A3.5,3.5,0,0,0,5.093,6.24a.511.511,0,0,0-.252-.383A1.083,1.083,0,0,0,4.2,5.724c-.123.006-.271.023-.437.034l.138-.414,4.078-.764.725-.041L6.6,11.853a3.725,3.725,0,0,0-.166.815.273.273,0,0,0,.117.2.365.365,0,0,0,.242.081,1.3,1.3,0,0,0,.563-.174,7.983,7.983,0,0,0,1.982-1.644,5.3,5.3,0,0,1-.289-1.694,5.622,5.622,0,0,1,3.071-4.989A6.611,6.611,0,0,0,10.25,2.554" transform="translate(0 0.969)" fill="#e50019"/>
        <path id="Path_85" data-name="Path 85" d="M13.787,29.635a20.673,20.673,0,0,1-1.876-3.3,9.787,9.787,0,0,1-.712-3.778,9.511,9.511,0,0,1,.712-3.676,21.336,21.336,0,0,1,1.836-3.254H14.9a23.318,23.318,0,0,0-1.548,3.338A11.655,11.655,0,0,0,12.8,22.62a11.693,11.693,0,0,0,.544,3.673,24.322,24.322,0,0,0,1.568,3.342Z" transform="translate(6.975 9.735)" fill="#464749"/>
        <path id="Path_86" data-name="Path 86" d="M22.978,18.094H21.262v2.425H17.379c-.544,0-.816.182-.816.562s.445.563,1.339.563c.123,0,.318-.006.573-.021s.45-.019.576-.019a3.606,3.606,0,0,1,2.149.581,2.267,2.267,0,0,1,.94,1.964,2.531,2.531,0,0,1-.771,1.868,2.584,2.584,0,0,1-1.883.766l1.792,1.483-.954,1.081-5.888-4.883,1-1.066c.958.831,1.539,1.315,1.732,1.44a3.943,3.943,0,0,0,2.152.651,1.6,1.6,0,0,0,1.044-.36,1.138,1.138,0,0,0,.437-.936c0-.88-.6-1.313-1.8-1.313-.166,0-.412.006-.74.029s-.576.031-.74.031q-2.422,0-2.423-1.836a1.666,1.666,0,0,1,.648-1.347,2.255,2.255,0,0,1,1.485-.536H19.8V18.094H13.977v-.961h9Z" transform="translate(8.706 10.672)" fill="#464749"/>
        <path id="Path_87" data-name="Path 87" d="M28.133,18.262a3.8,3.8,0,0,0-6.346,0h1.485v.961H21.622V28.28H20.181V19.222h-.919v-.961h.961A5.161,5.161,0,0,1,24.9,15.321a5.137,5.137,0,0,1,2.778.779,5.021,5.021,0,0,1,1.9,2.162Z" transform="translate(11.999 9.543)" fill="#464749"/>
        <path id="Path_88" data-name="Path 88" d="M31.465,18.094h-3.4a3.431,3.431,0,0,1,.961,2.572,4.264,4.264,0,0,1-.146,1.12h1.9V23H28.709v-.711A3.589,3.589,0,0,1,26.1,24.378l3.286,2.8H27.206l-5.049-4.345L23.1,21.8c.622.555.964.849,1.022.876a1.979,1.979,0,0,0,1.2.446,2.213,2.213,0,0,0,1.608-.693,2.186,2.186,0,0,0,.691-1.6,2.872,2.872,0,0,0-1.415-2.735H21.487v-.961h9.978Z" transform="translate(13.384 10.672)" fill="#464749"/>
        <path id="Path_89" data-name="Path 89" d="M40.395,18.094H38.788v9.035H37.35V20.952a2.388,2.388,0,0,0-1.683.725,2.313,2.313,0,0,0-.7,1.683,2.386,2.386,0,0,0,.208.972l-1.545-.724A4.659,4.659,0,0,1,33.82,22.2a2.232,2.232,0,0,0-2.077-1.245,2.378,2.378,0,0,0-1.727.7,2.437,2.437,0,0,0,0,3.428,2.373,2.373,0,0,0,1.727.7,2.28,2.28,0,0,0,1.8-.859v1.7a3.753,3.753,0,0,1-1.876.513,3.551,3.551,0,0,1-2.644-1.152,3.757,3.757,0,0,1-1.115-2.694,3.478,3.478,0,0,1,1.13-2.615A3.736,3.736,0,0,1,31.71,19.6a3.645,3.645,0,0,1,2.59,1.024v.6A3.55,3.55,0,0,1,37.35,19.6v-1.5H27.288v-.961H40.395Z" transform="translate(16.998 10.672)" fill="#464749"/>
        <path id="Path_90" data-name="Path 90" d="M44.724,18.094H41.78v2.382H38.106c-.377,0-.566.157-.566.471,0,.3.273.471.815.529h1.12q2.992,0,2.994,2.881a2.666,2.666,0,0,1-1,2.121,3.631,3.631,0,0,1-4.737-.078,3.023,3.023,0,0,1-1-2.337c0-.083,0-.234.015-.461h1.418v.378a2,2,0,0,0,.6,1.449,1.926,1.926,0,0,0,1.431.613,1.826,1.826,0,0,0,1.339-.516,1.8,1.8,0,0,0,.531-1.337,1.246,1.246,0,0,0-1.06-1.313,9.839,9.839,0,0,0-1.892-.109,2.1,2.1,0,0,1-1.35-.42,1.46,1.46,0,0,1-.623-1.246c0-1.258.685-1.881,2.056-1.881h2.18V18.094H35.121v-.961h9.6Zm-.836,3.234a.8.8,0,0,1-.9.919c-.557,0-.836-.291-.836-.876q0-.94.836-.94a.888.888,0,0,1,.638.261.873.873,0,0,1,.26.636" transform="translate(21.877 10.672)" fill="#464749"/>
        <path id="Path_91" data-name="Path 91" d="M43.223,25.493h-1.5a5.979,5.979,0,0,0-3.3-1.336l-.021-.67a6.49,6.49,0,0,1,4.822,2.006" transform="translate(23.92 14.63)" fill="#464749"/>
        <path id="Path_92" data-name="Path 92" d="M50.079,18.094H47.572v4.254l-.123.029A2.193,2.193,0,0,0,45.225,20.8a2.407,2.407,0,0,0-1.748.693,2.5,2.5,0,0,0-.023,3.454,2.389,2.389,0,0,0,4.117-1.722H49.1A3.748,3.748,0,0,1,47.958,26a3.834,3.834,0,0,1-2.808,1.125A3.734,3.734,0,0,1,42.4,25.994a3.972,3.972,0,0,1,0-5.542A3.679,3.679,0,0,1,45.129,19.3a3.863,3.863,0,0,1,.983.125V18.094h-5.45v-.961h9.416Z" transform="translate(25.329 10.672)" fill="#464749"/>
        <path id="Path_93" data-name="Path 93" d="M54.684,18.094H46.169v-.961H57.813v.961H56.124v9.082h-1.44V21.119h-4.53a1.87,1.87,0,0,0-1.428.586,2.055,2.055,0,0,0-.557,1.461,2,2,0,0,0,.557,1.449,1.885,1.885,0,0,0,1.428.576,1.919,1.919,0,0,0,1.451-.6,2.047,2.047,0,0,0,.576-1.47,1.876,1.876,0,0,0-1-1.712h1.73a3.356,3.356,0,0,1,.524,1.774,3.106,3.106,0,0,1-.992,2.3,3.254,3.254,0,0,1-2.329.956,3.065,3.065,0,0,1-2.264-.971,3.248,3.248,0,0,1,2.306-5.544h4.53Z" transform="translate(28.759 10.672)" fill="#464749"/>
        <path id="Path_94" data-name="Path 94" d="M71.951,18.094H64.626v1.649a3.566,3.566,0,0,1,2.319-.834A3.658,3.658,0,0,1,69.6,19.994a3.556,3.556,0,0,1,1.1,2.629,3.965,3.965,0,0,1-1.073,2.733,3.387,3.387,0,0,1-2.618,1.191,3.67,3.67,0,0,1-1.673-.411V24.462a2.216,2.216,0,0,0,1.566.646,2.284,2.284,0,0,0,1.68-.735,2.349,2.349,0,0,0,.721-1.685,2.187,2.187,0,0,0-.712-1.623,2.29,2.29,0,0,0-1.646-.7,2.389,2.389,0,0,0-1.547.584,1.778,1.778,0,0,0-.772,1.425v4.8H63.188V25.708a3.558,3.558,0,0,1-2.318.839,3.645,3.645,0,0,1-2.652-1.094,3.566,3.566,0,0,1-1.105-2.64,3.923,3.923,0,0,1,1.074-2.728,3.414,3.414,0,0,1,2.619-1.177,3.723,3.723,0,0,1,1.837.5v1.816a2.174,2.174,0,0,0-1.759-.857,2.377,2.377,0,0,0-2.373,2.382,2.255,2.255,0,0,0,.67,1.681,2.522,2.522,0,0,0,3.345.042,2.11,2.11,0,0,0,.661-1.6V18.094H56.279v-.961H71.951Z" transform="translate(35.057 10.672)" fill="#464749"/>
        <path id="Path_95" data-name="Path 95" d="M78.75,18.094H77.14v9.035H75.7V20.952a2.377,2.377,0,0,0-1.68.725,2.313,2.313,0,0,0-.7,1.683,2.382,2.382,0,0,0,.2.972l-1.542-.724a4.6,4.6,0,0,1,.188-1.412,2.241,2.241,0,0,0-2.082-1.245,2.358,2.358,0,0,0-1.72.7,2.429,2.429,0,0,0,0,3.428,2.353,2.353,0,0,0,1.72.7,2.281,2.281,0,0,0,1.81-.859v1.7a3.77,3.77,0,0,1-1.879.513,3.535,3.535,0,0,1-2.637-1.152,3.754,3.754,0,0,1-1.118-2.694,3.48,3.48,0,0,1,1.125-2.615,3.748,3.748,0,0,1,2.67-1.071,3.637,3.637,0,0,1,2.59,1.024v.6A3.549,3.549,0,0,1,75.7,19.6v-1.5H65.64v-.961H78.75Z" transform="translate(40.888 10.672)" fill="#464749"/>
        <path id="Path_96" data-name="Path 96" d="M74.618,18.193a1.627,1.627,0,0,0-1.018.735,4.735,4.735,0,0,1-1.552-1.4,8.2,8.2,0,0,0-1.185-1.4,4.655,4.655,0,0,0-2.446-.81l1.022-.9a4.275,4.275,0,0,1,2.168.855,11.537,11.537,0,0,1,1.362,1.462,6.152,6.152,0,0,0,1.647,1.456" transform="translate(42.618 8.982)" fill="#464749"/>
        <path id="Path_97" data-name="Path 97" d="M84.66,18.094h-1.8v9.057h-1.44V20.893h-2.15a3.84,3.84,0,0,1-3.111,6.156,3.876,3.876,0,0,1-2.214-.649V23.686A2.063,2.063,0,0,0,74.7,25a2.194,2.194,0,0,0,1.443.524,2.433,2.433,0,0,0,2.36-2.361,2.373,2.373,0,0,0-.618-1.543,1.827,1.827,0,0,0-1.431-.729h-1.42V19.76h6.389V18.094H73.511v-.961H84.66Z" transform="translate(45.791 10.672)" fill="#464749"/>
        <path id="Path_98" data-name="Path 98" d="M80.559,29.635a24.267,24.267,0,0,0,1.566-3.342,11.693,11.693,0,0,0,.544-3.673,11.69,11.69,0,0,0-.519-3.653,26.987,26.987,0,0,0-1.568-3.338h1.147a21.7,21.7,0,0,1,1.839,3.254,9.539,9.539,0,0,1,.709,3.676,9.816,9.816,0,0,1-.709,3.778,20.435,20.435,0,0,1-1.883,3.3Z" transform="translate(50.181 9.735)" fill="#464749"/>
      </g>
    </g>
  </g>
</svg>
